<svg width="51" height="50" viewBox="0 0 51 50" fill="none" xmlns="http://www.w3.org/2000/svg">
<path d="M13.5946 21C11.8843 21 10.4999 22.6603 10.4999 24.7117C10.4999 26.7632 11.8827 28.4244 13.5946 28.4244C15.3018 28.4244 16.6877 26.766 16.6877 24.7117C16.6877 22.6603 15.3018 21 13.5946 21ZM23.1602 21C21.4538 21 20.0655 22.6593 20.0655 24.7108C20.0655 26.7623 21.4522 28.4235 23.1602 28.4235C24.8682 28.4235 26.2565 26.7651 26.2565 24.7108C26.2549 22.6603 24.8682 21 23.1602 21ZM32.4076 21C30.698 21 29.3121 22.6603 29.3121 24.7127C29.3121 26.7623 30.6957 28.4235 32.4076 28.4235C34.114 28.4235 35.4999 26.7651 35.4999 24.7127C35.4999 22.6603 34.114 21 32.4076 21Z" fill="white" stroke="white" stroke-width="0.5" stroke-linecap="round" stroke-linejoin="round"/>
</svg>
