<svg width="20" height="21" viewBox="0 0 20 21" fill="none" xmlns="http://www.w3.org/2000/svg">
<path d="M0.729126 4.24189C0.729126 2.1753 2.96287 0.5 5.71834 0.5H14.2792C17.0346 0.5 19.2684 2.1753 19.2684 4.24189C19.2684 5.55047 18.3728 6.70219 17.0162 7.37098C18.3728 8.0398 19.2684 9.19148 19.2684 10.5001C19.2684 12.5667 17.0346 14.242 14.2792 14.242H14.1708C12.8791 14.242 11.7019 13.8738 10.8159 13.2697V16.7175C10.8159 18.8116 8.52376 20.5 5.74522 20.5C2.99663 20.5 0.729126 18.8298 0.729126 16.7581C0.729126 15.4496 1.62467 14.2979 2.98117 13.6291C1.62467 12.9603 0.729126 11.8086 0.729126 10.5001C0.729126 9.19148 1.62475 8.0398 2.98134 7.37098C1.62475 6.70219 0.729126 5.55047 0.729126 4.24189ZM9.18163 7.98387H5.71834C3.86544 7.98387 2.36339 9.11043 2.36339 10.5001C2.36339 11.8844 3.85386 13.0076 5.69689 13.0162C5.70402 13.0162 5.71116 13.0162 5.71834 13.0162H9.18163V7.98387ZM10.8159 10.5001C10.8159 11.8897 12.3179 13.0163 14.1708 13.0163H14.2792C16.1321 13.0163 17.6341 11.8897 17.6341 10.5001C17.6341 9.11043 16.1321 7.98387 14.2792 7.98387H14.1708C12.3179 7.98387 10.8159 9.11043 10.8159 10.5001ZM5.71834 14.242C5.71116 14.242 5.70402 14.242 5.69689 14.242C3.85386 14.2506 2.36339 15.3738 2.36339 16.7581C2.36339 18.1427 3.88551 19.2743 5.74522 19.2743C7.63491 19.2743 9.18163 18.1245 9.18163 16.7175V14.242H5.71834ZM5.71834 1.7257C3.86544 1.7257 2.36339 2.85224 2.36339 4.24189C2.36339 5.63156 3.86544 6.75809 5.71834 6.75809H9.18163V1.7257H5.71834ZM10.8159 6.75809H14.2792C16.1321 6.75809 17.6341 5.63156 17.6341 4.24189C17.6341 2.85224 16.1321 1.7257 14.2792 1.7257H10.8159V6.75809Z" fill="white"/>
</svg>
