<!DOCTYPE svg PUBLIC "-//W3C//DTD SVG 1.1//EN" "http://www.w3.org/Graphics/SVG/1.1/DTD/svg11.dtd">

<!-- Uploaded to: SVG Repo, www.svgrepo.com, Transformed by: SVG Repo Mixer Tools -->
<svg fill="currentColor" height="800px" width="800px" version="1.1" xmlns="http://www.w3.org/2000/svg" viewBox="0 0 230.888 230.888" xmlns:xlink="http://www.w3.org/1999/xlink" enable-background="new 0 0 230.888 230.888">

<g id="SVGRepo_bgCarrier" stroke-width="0"/>

<g id="SVGRepo_tracerCarrier" stroke-linecap="round" stroke-linejoin="round"/>

<g id="SVGRepo_iconCarrier"> <g> <g> <path d="m85.556,230.888c-75.306,0-90.207-74.522-60.397-119.233 16.063-24.089 49.207-51.316 48.376-97.135-0.196-10.741 11.163-17.803 20.758-12.969 12.145,6.116 26.307,15.677 35.618,29.792 31.977,48.452 15.869,95.759 15.869,95.759s20.333-11.582 37.525-32.073c6.701-7.992 19.45-6.328 23.902,3.107 21.155,44.862 25.808,132.752-62.036,132.752 0-44.713-29.809-88.034-29.809-88.034s-29.806,43.321-29.806,88.034z"/> </g> </g> </g>

</svg>