<svg width="800" height="800" viewBox="0 0 20 20" fill="none" xmlns="http://www.w3.org/2000/svg">
<path d="M6.68952 16.0234C6.68952 16.1016 6.59677 16.1641 6.47984 16.1641C6.34677 16.1758 6.25403 16.1133 6.25403 16.0234C6.25403 15.9453 6.34677 15.8828 6.46371 15.8828C6.58468 15.8711 6.68952 15.9336 6.68952 16.0234ZM5.43548 15.8477C5.40726 15.9258 5.4879 16.0156 5.60887 16.0391C5.71371 16.0781 5.83468 16.0391 5.85887 15.9609C5.88306 15.8828 5.80645 15.793 5.68548 15.7578C5.58065 15.7305 5.46371 15.7695 5.43548 15.8477ZM7.21774 15.7812C7.10081 15.8086 7.02016 15.8828 7.03226 15.9727C7.04435 16.0508 7.14919 16.1016 7.27016 16.0742C7.3871 16.0469 7.46774 15.9727 7.45564 15.8945C7.44355 15.8203 7.33468 15.7695 7.21774 15.7812ZM9.87097 0.8125C4.27823 0.8125 0 4.92578 0 10.3438C0 14.6758 2.81452 18.3828 6.83468 19.6875C7.35081 19.7773 7.53226 19.4688 7.53226 19.2148C7.53226 18.9727 7.52016 17.6367 7.52016 16.8164C7.52016 16.8164 4.69758 17.4023 4.10484 15.6523C4.10484 15.6523 3.64516 14.5156 2.98387 14.2227C2.98387 14.2227 2.06048 13.6094 3.04839 13.6211C3.04839 13.6211 4.05242 13.6992 4.60484 14.6289C5.4879 16.1367 6.96774 15.7031 7.54435 15.4453C7.6371 14.8203 7.89919 14.3867 8.18952 14.1289C5.93548 13.8867 3.66129 13.5703 3.66129 9.8125C3.66129 8.73828 3.96774 8.19922 4.6129 7.51172C4.50806 7.25781 4.16532 6.21094 4.71774 4.85938C5.56048 4.60547 7.5 5.91406 7.5 5.91406C8.30645 5.69531 9.17339 5.58203 10.0323 5.58203C10.8911 5.58203 11.7581 5.69531 12.5645 5.91406C12.5645 5.91406 14.504 4.60156 15.3468 4.85938C15.8992 6.21484 15.5565 7.25781 15.4516 7.51172C16.0968 8.20312 16.4919 8.74219 16.4919 9.8125C16.4919 13.582 14.1169 13.8828 11.8629 14.1289C12.2339 14.4375 12.5484 15.0234 12.5484 15.9414C12.5484 17.2578 12.5363 18.8867 12.5363 19.207C12.5363 19.4609 12.7218 19.7695 13.2339 19.6797C17.2661 18.3828 20 14.6758 20 10.3438C20 4.92578 15.4637 0.8125 9.87097 0.8125ZM3.91935 14.2852C3.86694 14.3242 3.87903 14.4141 3.94758 14.4883C4.0121 14.5508 4.10484 14.5781 4.15726 14.5273C4.20968 14.4883 4.19758 14.3984 4.12903 14.3242C4.06452 14.2617 3.97177 14.2344 3.91935 14.2852ZM3.48387 13.9688C3.45565 14.0195 3.49597 14.082 3.57661 14.1211C3.64113 14.1602 3.72177 14.1484 3.75 14.0938C3.77823 14.043 3.7379 13.9805 3.65726 13.9414C3.57661 13.918 3.5121 13.9297 3.48387 13.9688ZM4.79032 15.3594C4.72581 15.4102 4.75 15.5273 4.84274 15.6016C4.93548 15.6914 5.05242 15.7031 5.10484 15.6406C5.15726 15.5898 5.13306 15.4727 5.05242 15.3984C4.96371 15.3086 4.84274 15.2969 4.79032 15.3594ZM4.33065 14.7852C4.26613 14.8242 4.26613 14.9258 4.33065 15.0156C4.39516 15.1055 4.50403 15.1445 4.55645 15.1055C4.62097 15.0547 4.62097 14.9531 4.55645 14.8633C4.5 14.7734 4.39516 14.7344 4.33065 14.7852Z" fill="white"/>
</svg>
