<?xml version="1.0" encoding="UTF-8"?>
<svg width="143px" height="44px" viewBox="0 0 143 44" version="1.1" xmlns="http://www.w3.org/2000/svg" xmlns:xlink="http://www.w3.org/1999/xlink">
    <title>编组</title>
    <defs>
        <filter id="filter-1">
            <feColorMatrix in="SourceGraphic" type="matrix" values="0 0 0 0 1.000000 0 0 0 0 1.000000 0 0 0 0 1.000000 0 0 0 1.000000 0"></feColorMatrix>
        </filter>
        <polygon id="path-2" points="0.526645373 0.0992176747 14.4227518 0.0992176747 14.4227518 14.5958106 0.526645373 14.5958106"></polygon>
    </defs>
    <g id="页面-1" stroke="none" stroke-width="1" fill="none" fill-rule="evenodd">
        <g id="Homepage" transform="translate(-150.000000, -2691.000000)">
            <g id="编组-2" transform="translate(0.000000, 2661.000000)" filter="url(#filter-1)">
                <g transform="translate(150.000000, 30.207600)" id="编组">
                    <path d="M19.102828,-0.000263718264 C29.6528771,-0.000263718264 38.206579,8.55211957 38.206579,19.1034873 C38.206579,22.8100475 37.1332457,26.2581638 35.3056781,29.1880737 L35.3056781,29.1880737 L41.2802154,35.162611 C43.1407477,37.0231433 43.1407477,40.0413989 41.2802154,41.9019312 C39.419683,43.7637821 36.4014275,43.7637821 34.5408952,41.9019312 L34.5408952,41.9019312 L28.4134013,35.7757559 C25.6575455,37.3185078 22.4863333,38.2059197 19.102828,38.2059197 C17.5829997,38.2059197 16.1046289,38.0284324 14.6873118,37.6930542 L14.6880524,27.0661966 C14.6880524,27.0411433 14.7078313,27.0213645 14.7315659,27.0213645 L22.1881998,27.0213645 C26.0846372,27.0213645 29.750321,24.7454758 31.1163817,21.0956151 C33.4357838,14.8903243 28.7455545,8.58218346 22.7090434,8.58218346 L15.0585766,8.58218346 C11.4443178,8.58218346 8.48671744,11.5397838 8.48671744,15.1553612 L8.48648313,34.986616 C3.36925668,31.5594689 0.000395577396,25.7249274 0.000395577396,19.1034873 C0.000395577396,8.55211957 8.55277887,-0.000263718264 19.102828,-0.000263718264 Z M26.5514185,19.1032236 C26.5514185,21.4845995 24.6210008,23.4150172 22.2396249,23.4150172 C19.858249,23.4150172 17.9278313,21.4845995 17.9278313,19.1032236 L26.5514185,19.1032236 Z M25.9606896,13.3198821 C26.9232613,13.3198821 27.7038673,14.1004881 27.7038673,15.0630598 C27.7038673,16.0256314 26.9232613,16.8062375 25.9606896,16.8062375 C24.9981179,16.8062375 24.2175119,16.0256314 24.2175119,15.0630598 C24.2175119,14.1004881 24.9981179,13.3198821 25.9606896,13.3198821 Z M18.5185602,13.3198821 C19.4811319,13.3198821 20.2617379,14.1004881 20.2617379,15.0630598 C20.2617379,16.0256314 19.4811319,16.8062375 18.5185602,16.8062375 C17.5546699,16.8062375 16.7740639,16.0256314 16.7740639,15.0630598 C16.7740639,14.1004881 17.5546699,13.3198821 18.5185602,13.3198821 Z" id="形状结合" fill="#1D76FB"></path>
                    <path d="M62.95224,8.72327273 C64.1257862,8.72327273 65.3837224,9.78078296 65.3837224,10.9530106 L65.3837224,21.2459345 C65.3837224,25.8214464 61.522887,29.5662457 56.9486937,29.5662457 C52.3745004,29.5662457 48.5149836,25.8214464 48.5149836,21.2459345 C48.5149836,20.0737068 49.488104,19.130914 50.6590131,19.130914 C51.8299222,19.130914 52.830733,20.0737068 52.830733,21.2459345 C52.830733,23.4756724 54.7189558,25.3058771 56.9486937,25.3058771 C59.1797502,25.3058771 61.1523628,23.4756724 61.1523628,21.2459345 L61.1523628,12.9836413 L56.8062858,12.9836413 C55.6327396,12.9836413 54.6899468,12.0395299 54.6899468,10.8673022 C54.6899468,9.69507453 55.6327396,8.75096314 56.8062858,8.75096314 L62.981249,8.75096314 L62.95224,8.72327273 Z" id="Fill-5" fill="#1D76FB"></path>
                    <path d="M71.9530762,22.2182637 C71.9530762,23.8770516 73.2980393,25.2193776 74.9555086,25.2193776 C76.6129779,25.2193776 77.957941,23.8770516 77.957941,22.2182637 C77.957941,20.5594758 76.6129779,19.2171499 74.9555086,19.2171499 C73.2980393,19.2171499 71.9530762,20.5594758 71.9530762,22.2182637 M67.6940262,22.2182637 C67.6940262,18.2150205 70.9522654,14.9567813 74.9555086,14.9567813 C78.9574333,14.9567813 82.216991,18.2150205 82.216991,22.2182637 C82.216991,26.221507 78.9574333,29.4810647 74.9555086,29.4810647 C70.9522654,29.4810647 67.6940262,26.221507 67.6940262,22.2182637" id="Fill-7" fill="#1D76FB"></path>
                    <path d="M94.3357682,22.189914 C94.3357682,20.5311261 92.9921237,19.1888002 91.3346544,19.1888002 C89.6758665,19.1888002 88.3322219,20.5311261 88.3322219,22.189914 C88.3322219,23.8487019 89.6758665,25.1910278 91.3346544,25.1910278 C92.9921237,25.1910278 94.3357682,23.8487019 94.3357682,22.189914 L94.3357682,22.189914 Z M91.3346544,14.956122 C95.336579,14.956122 98.5948182,18.2156798 98.5948182,22.2176044 C98.5948182,26.2221663 95.336579,29.4804054 91.3346544,29.4804054 C90.1044087,29.4804054 88.932181,29.1665807 87.9036798,28.623321 C87.502828,29.1375717 86.9015504,29.4804054 86.2172015,29.4804054 C85.0436552,29.4804054 84.0995438,28.536294 84.0995438,27.3653849 L84.0995438,10.8961794 C84.0995438,9.72395168 85.0436552,8.78115889 86.2172015,8.78115889 C87.3881106,8.78115889 88.3322219,9.72395168 88.3322219,10.8961794 L88.3322219,15.6417895 C89.2473243,15.2132473 90.2468165,14.985131 91.3056454,14.985131 L91.3346544,14.956122 Z" id="Fill-9" fill="#1D76FB"></path>
                    <path d="M114.329568,17.214869 C115.416088,17.214869 116.302181,16.1850491 116.302181,15.0998485 C116.302181,14.0120106 115.416088,12.9835094 114.329568,12.9835094 L108.782255,12.9835094 L108.782255,17.2425594 L114.329568,17.2425594 L114.329568,17.214869 Z M114.329568,8.75214988 C117.760543,8.75214988 120.56255,11.6965643 120.56255,15.1275389 C120.56255,18.5585135 117.760543,21.5029279 114.329568,21.5029279 L108.782255,21.5029279 L108.782255,27.4801024 C108.782255,28.6510115 107.810453,29.5951229 106.638225,29.5951229 C105.465998,29.5951229 104.494196,28.6510115 104.494196,27.4801024 L104.494196,11.0675962 C104.494196,9.89536855 105.32359,8.75214988 106.495817,8.75214988 L114.301878,8.75214988 L114.329568,8.75214988 Z" id="Fill-11" fill="#1D76FB"></path>
                    <path d="M122.300453,27.3651212 L122.300453,17.0998878 C122.300453,15.9276601 123.244564,14.9848673 124.415473,14.9848673 C125.587701,14.9848673 126.531812,15.9276601 126.531812,17.0998878 L126.531812,27.3651212 C126.531812,28.5373489 125.587701,29.4801417 124.415473,29.4801417 C123.244564,29.4801417 122.300453,28.5373489 122.300453,27.3651212 M122.900412,12.3542776 C122.500879,11.9534259 122.272762,11.4101663 122.272762,10.8392162 C122.272762,10.2669476 122.500879,9.72368796 122.900412,9.32415479 C123.700797,8.52245127 125.13015,8.52245127 125.931853,9.32415479 C126.332705,9.72368796 126.559503,10.2669476 126.559503,10.8392162 C126.559503,11.4101663 126.332705,11.9534259 125.931853,12.3542776 C125.531002,12.7538108 124.987742,12.9832457 124.415473,12.9832457 C123.844523,12.9832457 123.301264,12.7538108 122.900412,12.3542776" id="Fill-13" fill="#1D76FB"></path>
                    <path d="M136.369242,29.480801 C136.358693,29.480801 136.350781,29.4781638 136.340233,29.4781638 C136.331002,29.4781638 136.321772,29.480801 136.311224,29.480801 L136.369242,29.480801 Z" id="Fill-15" fill="#1D76FB"></path>
                    <g transform="translate(127.947584, 14.885386)">
                        <mask id="mask-3" fill="white">
                            <use xlink:href="#path-2"></use>
                        </mask>
                        <g id="Clip-18"></g>
                        <path d="M7.47562162,0.0992176747 C6.29943817,0.0992176747 5.20764455,0.419635365 4.23584275,0.937841753 C3.86268141,0.431502687 3.26535954,0.0992176747 2.58496642,0.0992176747 C1.44438493,0.0992176747 0.526645373,1.01563864 0.526645373,2.15622013 L0.526645373,7.04687533 L0.526645373,8.87971727 L0.526645373,12.536171 C0.526645373,13.6793897 1.44306634,14.5958106 2.58628501,14.5958106 C3.72950369,14.5958106 4.64592465,13.6793897 4.64592465,12.536171 L4.64592465,7.04687533 C4.64592465,5.47511448 5.93155119,4.18816935 7.50331204,4.18816935 C9.07639148,4.18816935 10.362018,5.47511448 10.362018,7.04687533 L10.362018,12.536171 C10.362018,13.6701595 11.2626159,14.5773504 12.3926486,14.5918549 C13.524,14.5773504 14.4232793,13.6701595 14.4232793,12.536171 L14.4232793,7.04687533 C14.4232793,3.21504896 11.3061294,0.0992176747 7.47562162,0.0992176747" id="Fill-17" fill="#1D76FB" mask="url(#mask-3)"></path>
                    </g>
                </g>
            </g>
        </g>
    </g>
</svg>