<svg width="72" height="73" viewBox="0 0 72 73" fill="none" xmlns="http://www.w3.org/2000/svg">
<path d="M0 5.5C0 2.73857 2.23858 0.5 5 0.5H67C69.7614 0.5 72 2.73858 72 5.5V67.5C72 70.2614 69.7614 72.5 67 72.5H5C2.23857 72.5 0 70.2614 0 67.5V5.5Z" fill="#FF5943"/>
<path d="M31.672 12.8V53.888L31.224 59.2L30.264 61.568C29.7093 62.5067 28.9413 63.0613 27.96 63.232L24.376 63.936L21.048 64L15.992 63.744C13.7307 63.2747 12.28 62.1867 11.64 60.48L11 57.216V42.496H19.32V55.04L19.512 56.256L19.96 56.96L20.664 57.216H20.92L21.624 57.088L22.2 56.768L22.392 12.8H31.672ZM50.4445 13.056C52.7912 13.5253 54.2205 14.5707 54.7325 16.192L55.4365 19.392L55.5645 30.464H46.3485V21.632L46.2205 20.544L45.9005 19.84L45.2605 19.584H44.8125L44.1725 19.648L43.7245 20.032L43.5325 20.8V30.656C43.6605 31.2533 44.0018 31.7013 44.5565 32L45.5805 32.768L51.1485 35.776C53.9645 37.2693 55.3938 39.2747 55.4365 41.792L55.5645 54.016C55.5645 56.192 55.4365 57.92 55.1805 59.2L54.3485 61.632C53.8365 62.4427 53.0472 63.04 51.9805 63.424L48.5885 64L39.4365 63.808L36.6845 62.848C35.8738 62.2507 35.2978 61.504 34.9565 60.608L34.2525 57.216V42.816H43.5325V55.168L43.7245 56.448L43.9805 57.024L44.8765 57.344L45.0685 57.408L45.7725 57.216L46.1565 56.768L46.3485 55.936V43.264L45.5805 42.048L44.3645 41.216L38.3485 38.016C35.6178 36.5653 34.2525 34.304 34.2525 31.232V22.848C34.2525 20.544 34.3592 18.816 34.5725 17.664L35.4045 15.232C36.2152 14.208 37.1112 13.6107 38.0925 13.44L41.6765 12.864L45.0045 12.8L50.4445 13.056Z" fill="white"/>
</svg>
