<svg width="800" height="800" viewBox="0 0 20 21" fill="none" xmlns="http://www.w3.org/2000/svg">
<path d="M4.47679 20.5005H0.330357V7.14751H4.47679V20.5005ZM2.40134 5.32604C1.07545 5.32604 0 4.2278 0 2.90188C9.49017e-09 2.26499 0.252998 1.65419 0.703336 1.20384C1.15367 0.753491 1.76446 0.500488 2.40134 0.500488C3.03821 0.500488 3.649 0.753491 4.09934 1.20384C4.54968 1.65419 4.80268 2.26499 4.80268 2.90188C4.80268 4.2278 3.72679 5.32604 2.40134 5.32604ZM19.9955 20.5005H15.858V14.0003C15.858 12.4512 15.8268 10.4646 13.7022 10.4646C11.5464 10.4646 11.2161 12.1476 11.2161 13.8887V20.5005H7.07411V7.14751H11.0509V8.96898H11.1089C11.6625 7.91985 13.0147 6.81268 15.0321 6.81268C19.2286 6.81268 20 9.57614 20 13.1655V20.5005H19.9955Z" fill="white"/>
</svg>
