<svg width="122" height="35" viewBox="0 0 122 35" fill="none" xmlns="http://www.w3.org/2000/svg">
<path d="M6.38 14.7C5.3 14.7 4.28667 14.5 3.34 14.1C2.39333 13.7 1.57333 13.1133 0.88 12.34L2.64 8.96C3.98667 10.1467 5.12667 10.74 6.06 10.74C6.71333 10.74 7.21333 10.48 7.56 9.96C7.90667 9.42667 8.08 8.76667 8.08 7.98V0.0999994H12.24V7.98C12.24 10.0333 11.7333 11.6667 10.72 12.88C9.72 14.0933 8.27333 14.7 6.38 14.7ZM26.2419 0.0999994H30.1619L35.3819 14.5H31.5819L30.5219 11.54H25.8819L24.8219 14.5H21.0219L26.2419 0.0999994ZM29.2219 7.96L28.2019 5.08L27.1819 7.96H29.2219ZM48.2564 8.52L43.0964 0.0999994H47.8164L50.3164 4.16L52.8364 0.0999994H57.5564L52.4164 8.52V14.5H48.2564V8.52ZM70.5472 14.7C69.4672 14.7 68.4539 14.5 67.5072 14.1C66.5605 13.7 65.7405 13.1133 65.0472 12.34L66.8072 8.96C68.1539 10.1467 69.2939 10.74 70.2272 10.74C70.8805 10.74 71.3805 10.48 71.7272 9.96C72.0739 9.42667 72.2472 8.76667 72.2472 7.98V0.0999994H76.4072V7.98C76.4072 10.0333 75.9005 11.6667 74.8872 12.88C73.8872 14.0933 72.4405 14.7 70.5472 14.7ZM90.4091 0.0999994H94.3291L99.5491 14.5H95.7491L94.6891 11.54H90.0491L88.9891 14.5H85.1891L90.4091 0.0999994ZM93.3891 7.96L92.3691 5.08L91.3491 7.96H93.3891ZM112.424 8.52L107.264 0.0999994H111.984L114.484 4.16L117.004 0.0999994H121.724L116.584 8.52V14.5H112.424V8.52ZM7.36 34.7C6.09333 34.7 4.94667 34.52 3.92 34.16C2.90667 33.7867 2 33.1733 1.2 32.32L3.3 29.26C3.92667 29.8333 4.56667 30.2467 5.22 30.5C5.87333 30.74 6.58667 30.86 7.36 30.86C8.61333 30.86 9.24 30.5667 9.24 29.98C9.24 29.86 9.18667 29.76 9.08 29.68C8.97333 29.5867 8.72667 29.5 8.34 29.42C7.96667 29.34 7.39333 29.2733 6.62 29.22C5.74 29.14 4.96 28.8933 4.28 28.48C3.6 28.0667 3.06667 27.52 2.68 26.84C2.30667 26.16 2.12 25.4067 2.12 24.58C2.12 23.6333 2.36 22.8067 2.84 22.1C3.32 21.3933 3.97333 20.8533 4.8 20.48C5.62667 20.0933 6.54667 19.9 7.56 19.9C8.57333 19.9 9.55333 20.0667 10.5 20.4C11.46 20.7333 12.3067 21.1667 13.04 21.7L11.1 24.88C10.6733 24.5733 10.1133 24.3133 9.42 24.1C8.72667 23.8733 8.1 23.76 7.54 23.76C7.03333 23.76 6.70667 23.8467 6.56 24.02C6.41333 24.18 6.34 24.3933 6.34 24.66C6.34 24.8333 6.51333 24.9867 6.86 25.12C7.20667 25.24 7.9 25.36 8.94 25.48C9.78 25.5733 10.54 25.8267 11.22 26.24C11.9133 26.6533 12.4533 27.2 12.84 27.88C13.24 28.56 13.44 29.3267 13.44 30.18C13.44 31.2467 13.1467 32.12 12.56 32.8C11.9733 33.4667 11.22 33.9533 10.3 34.26C9.39333 34.5533 8.41333 34.7 7.36 34.7ZM26.0064 24.06H21.9464V20.1H34.2464V24.06H30.1864V34.5H26.0064V24.06ZM49.638 34.7C48.478 34.7 47.4113 34.46 46.438 33.98C45.478 33.5 44.718 32.8267 44.158 31.96C43.598 31.08 43.318 30.0733 43.318 28.94V20.1H47.498V28.94C47.498 29.4333 47.698 29.8333 48.098 30.14C48.498 30.4333 49.0046 30.58 49.618 30.58C50.218 30.58 50.718 30.4333 51.118 30.14C51.518 29.8333 51.718 29.4333 51.718 28.94V20.1H55.898V28.94C55.898 30.0733 55.618 31.08 55.058 31.96C54.5113 32.8267 53.758 33.5 52.798 33.98C51.838 34.46 50.7846 34.7 49.638 34.7ZM66.0584 20.1H72.5584C73.9318 20.1 75.1584 20.4 76.2384 21C77.3184 21.5867 78.1651 22.4267 78.7784 23.52C79.3918 24.6 79.6984 25.86 79.6984 27.3C79.6984 28.74 79.3918 30.0067 78.7784 31.1C78.1651 32.18 77.3184 33.02 76.2384 33.62C75.1584 34.2067 73.9318 34.5 72.5584 34.5H66.0584V20.1ZM72.5584 30.52C73.3984 30.52 74.0784 30.2333 74.5984 29.66C75.1318 29.0733 75.3984 28.2867 75.3984 27.3C75.3984 26.3267 75.1318 25.5467 74.5984 24.96C74.0784 24.3733 73.3984 24.08 72.5584 24.08H70.2184V30.52H72.5584ZM89.3616 20.1H93.5416V34.5H89.3616V20.1ZM110.636 34.7C109.289 34.7 108.042 34.3733 106.896 33.72C105.749 33.0533 104.842 32.1533 104.176 31.02C103.509 29.8867 103.176 28.6467 103.176 27.3C103.176 25.9533 103.509 24.7133 104.176 23.58C104.842 22.4467 105.749 21.5533 106.896 20.9C108.042 20.2333 109.289 19.9 110.636 19.9C111.996 19.9 113.249 20.2333 114.396 20.9C115.542 21.5533 116.449 22.4467 117.116 23.58C117.796 24.7133 118.136 25.9533 118.136 27.3C118.136 28.6467 117.796 29.8867 117.116 31.02C116.449 32.1533 115.542 33.0533 114.396 33.72C113.249 34.3733 111.996 34.7 110.636 34.7ZM107.456 27.3C107.456 27.9 107.596 28.4533 107.876 28.96C108.169 29.4533 108.556 29.8467 109.036 30.14C109.529 30.4333 110.062 30.58 110.636 30.58C111.222 30.58 111.762 30.4333 112.256 30.14C112.749 29.8467 113.136 29.4533 113.416 28.96C113.709 28.4533 113.856 27.9 113.856 27.3C113.856 26.7 113.709 26.1533 113.416 25.66C113.136 25.1533 112.749 24.7533 112.256 24.46C111.762 24.1667 111.222 24.02 110.636 24.02C110.062 24.02 109.529 24.1667 109.036 24.46C108.556 24.7533 108.169 25.1533 107.876 25.66C107.596 26.1533 107.456 26.7 107.456 27.3Z" fill="#FF5943"/>
</svg>
