<?xml version="1.0" encoding="utf-8"?>
<!-- Generator: Adobe Illustrator 19.2.1, SVG Export Plug-In . SVG Version: 6.00 Build 0)  -->
<svg version="1.1" id="layer" xmlns="http://www.w3.org/2000/svg" xmlns:xlink="http://www.w3.org/1999/xlink" x="0px" y="0px"
	 viewBox="0 0 652 652" style="enable-background:new 0 0 652 652;" xml:space="preserve">
<style type="text/css">
	.st0{fill:currentColor;}
</style>
<g>
	<path class="st0" d="M59.1,347.4c0,6.3-5.1,11.4-11.4,11.4c-6.3,0-11.4-5.1-11.4-11.4c0-6.3,5.1-11.4,11.4-11.4
		C53.9,336,59.1,341.1,59.1,347.4 M21.6,232.2h13c-1.2,2-2,4.7-2,8.4v7.3c-4-0.3-6.5-1.5-8.9-4.3c-3.1-3.8-3-7.5-2.9-8.9
		C20.9,233.3,21.4,232.4,21.6,232.2 M110.1,264.6c0,21.4-13.3,32.2-39.5,32.2H57.5v22.8c0,6.1-3.1,9.3-8.8,9.3h-3.3
		c-5,0-7.9-2.6-8.4-7.6c-0.1-0.5-0.1-1.1-0.1-1.7v-30.9c0-3.9,3.2-7.1,7.1-7.1h26.3c12.8,0,19.8-6,19.8-16.9
		c0-10.8-7-16.8-19.8-16.8h-8.4v-7.3c0-3.7-0.8-6.4-2-8.4h10.7C96.4,232.2,110.1,243.4,110.1,264.6 M43.9,277.4
		c-2.7,0-5.2,1-7.1,2.5v-39.3c0-4.4,1.3-7.1,4-8.4c1.2-0.6,2.7-0.9,4.5-0.9H49c1.8,0,3.3,0.3,4.5,0.9c2.7,1.3,4,4,4,8.4v36.8H43.9z
		 M571.3,310.8c-16.5,0-27.7-12.5-27.7-30.6c0-18.4,11.1-30.6,27.6-30.6c16.5,0,27.9,12.6,27.9,30.7
		C599,298.7,587.8,310.8,571.3,310.8 M571.1,330.3c29.1,0,49.6-20.6,49.6-50c0-29.2-20.3-49.8-49.4-49.8c-28.8,0-49.6,20.8-49.6,50
		C521.7,309.8,542.1,330.3,571.1,330.3 M499.1,251.4c7.3-0.1,11-1,14.6-5.3c2.1-2.6,3-5.1,3.4-7.1c0.3-1.7,0.2-3,0.2-3.8
		c-0.2-1.6-0.7-2.5-0.9-2.9h-74.2c-6.5,0-10.1,3.1-10.1,9.1v0.6c0,6.2,3.5,9.5,10.1,9.5h21.8V319c0,6.5,3,9.9,9,9.9h3.1
		c6.2,0,9.7-3.4,9.7-9.9v-67.6L499.1,251.4z M342.6,328.9h2.1c6.4,0,9.5-3.4,9.5-9.9v-54.7l43.2,59.3c3.1,3.8,4.7,5.3,10.5,5.3h1.8
		c5.8,0,9.4-3.7,9.4-10.8v-76.4c0-6.5-3.1-9.9-9.2-9.9h-2.1c-6.2,0-9.3,3.4-9.3,9.9v53.4L356.8,238c-3.4-4.3-5.3-6.2-11.1-6.2H343
		c-5.9,0-9.5,3.9-9.5,10.8V319C333.6,325.5,336.7,328.9,342.6,328.9 M267.6,310.8c-16.5,0-27.7-12.5-27.7-30.6
		c0-18.4,11.1-30.6,27.6-30.6c16.5,0,27.9,12.6,27.9,30.7C295.3,298.7,284.1,310.8,267.6,310.8 M267.4,330.3
		c29.1,0,49.6-20.6,49.6-50c0-29.2-20.3-49.8-49.4-49.8c-28.8,0-49.6,20.8-49.6,50C218,309.8,238.4,330.3,267.4,330.3 M148.1,278.2
		v-28.8h16.3c11.9,0,17.8,5,17.8,14.4c0,8.9-5.6,14.4-17.4,14.4H148.1z M179.2,290.7c16.3-2.7,24.9-13.1,24.9-28.3
		c0-19.6-12.9-30-37.8-30H138c-7.1,0-11.4,4.5-11.4,12.2v72.4c0,7.7,3.3,12,9.2,12h3.1c6.2,0,9.5-3.7,9.5-9.9v-24.8h8.3l20.5,25.8
		c4.6,6.2,8.2,8.9,14.4,8.9c9.4,0,13.5-7,12.6-8L179.2,290.7z"/>
	<path class="st0" d="M199.7,406.4c0-1.6,2.1-2.8,2.2-2.6c1.7,2.5,5,4.7,9.2,4.7c4.2,0,6.6-1.7,6.6-4.8c0-3.4-3.6-4.2-7.6-5.2
		c-4.7-1.1-9.6-2.7-9.6-8.9c0-5.2,4.5-8.9,11-8.9c4,0,6.9,1.1,8.6,2.5c1.2,0.9,1.8,2,1.8,2.9c0,1.7-2.2,2.8-2.3,2.7
		c-1.6-2.3-4.6-4.1-8.1-4.1c-3.8,0-6.3,1.8-6.3,4.7c0,3.3,3,3.9,7.2,4.8c5.2,1.2,10.2,3.2,10.2,9.1c0,5.6-4.3,9.1-11.4,9.1
		c-4.7,0-8.1-1.5-9.9-3.2C200.2,408.3,199.7,407.3,199.7,406.4"/>
	<path class="st0" d="M252.3,396.7c0-6.8-4.4-11.6-10.6-11.6c-6.2,0-10.5,4.7-10.5,11.5c0,6.8,4.4,11.6,10.6,11.6
		C247.9,408.2,252.3,403.5,252.3,396.7 M226.3,396.7c0-9.3,6.5-15.9,15.4-15.9c9.1,0,15.4,6.5,15.4,15.8c0,9.3-6.4,15.9-15.5,15.9
		C232.6,412.5,226.3,406,226.3,396.7"/>
	<path class="st0" d="M262.4,384.1c0-1.6,1-2.7,2.6-2.7h16.4c1.5,0,2.3,0.7,2.3,2v0.3c0,1.3-0.8,2-2.3,2h-14.2v9.7h10.6
		c1.6,0,2.3,0.7,2.3,1.9v0.2c0,1.3-0.8,2-2.3,2h-10.5v10.4c0,1.5-0.7,2.2-2.1,2.2h-0.8c-1.3,0-2-0.9-2-2.5V384.1z"/>
	<path class="st0" d="M296.3,385.7H288c-1.5,0-2.3-0.8-2.3-2.1v-0.2c0-1.3,0.8-2,2.3-2h21.6c1.5,0,2.2,0.7,2.2,2v0.2
		c0,1.3-0.8,2.1-2.2,2.1h-8.3v24.1c0,1.5-0.7,2.2-2.2,2.2h-0.7c-1.4,0-2.1-0.8-2.1-2.2V385.7z"/>
	<path class="st0" d="M322.1,410.3l-7.1-27.7c0-0.2,1-1.4,2.9-1.4c1.3,0,2.4,0.8,2.8,2.8l4.9,22.4l5.8-19.2c0.4-1.5,1.3-2.2,3.2-2.2
		c1.9,0,2.7,0.8,3.2,2.2l5.7,19.1l5-22.4c0.4-2,1.3-2.8,2.7-2.8c1.8,0,2.8,1.1,2.7,1.4l-7,27.7c-0.3,1.4-1.2,1.9-3.3,1.9
		c-1.9,0-2.7-0.6-3.2-2l-5.9-19.7l-6.2,19.7c-0.4,1.4-1.2,2-3.1,2C323.3,412.2,322.4,411.7,322.1,410.3"/>
	<path class="st0" d="M374.1,399l-4.9-12.9l-4.9,12.9H374.1z M355.1,410.6l10.8-28c0.4-1,1.1-1.6,3.3-1.6c2.3,0,3,0.6,3.3,1.6
		l10.9,28c0.1,0.4-1.2,1.5-2.7,1.5c-1.1,0-2.2-0.5-2.9-2.3l-2.7-6.9h-12.2l-2.7,7c-0.6,1.7-1.6,2.2-2.7,2.2
		C356.3,412.1,354.9,411.1,355.1,410.6"/>
	<path class="st0" d="M398.6,396.1c4.5,0,6.6-2.1,6.6-5.4c0-3.5-2.3-5.4-6.7-5.4h-6.3v10.7H398.6z M387.4,409.6v-25.4
		c0-1.6,1-2.7,2.6-2.7h8.7c7.4,0,11.4,3.1,11.4,9.1c0,4.6-2.5,7.7-7.2,8.7c-0.6,0.1-1.3,0.2-1.9,0.3l8.9,10.6c0.2,0.3-0.8,2-2.8,2
		c-1.3,0-2.1-0.5-3.2-1.9l-8.3-10.2h-3.3v9.9c0,1.3-0.7,2.2-2.1,2.2h-0.7C388.1,412,387.4,411.2,387.4,409.6"/>
	<path class="st0" d="M415.1,409.2v-25.1c0-1.6,1-2.7,2.6-2.7h17.7c1.5,0,2.3,0.8,2.3,2v0.3c0,1.3-0.8,2-2.3,2H420v8.5h11.9
		c1.6,0,2.3,0.7,2.3,1.9v0.1c0,1.3-0.8,2-2.3,2H420v9.2h15.7c1.5,0,2.2,0.7,2.2,1.9v0.2c0,1.4-0.7,2.1-2.2,2.1h-17.9
		C416.2,411.9,415.1,410.8,415.1,409.2"/>
</g>
</svg>
