<svg width="130" height="51" viewBox="0 0 130 51" fill="none" xmlns="http://www.w3.org/2000/svg">
<circle cx="25" cy="25.5" r="25" fill="#F54C37"/>
<path d="M19.4768 35.5005H15.3304V22.1475H19.4768V35.5005ZM17.4013 20.326C16.0754 20.326 15 19.2278 15 17.9019C15 17.265 15.253 16.6542 15.7033 16.2038C16.1537 15.7535 16.7645 15.5005 17.4013 15.5005C18.0382 15.5005 18.649 15.7535 19.0993 16.2038C19.5497 16.6542 19.8027 17.265 19.8027 17.9019C19.8027 19.2278 18.7268 20.326 17.4013 20.326ZM34.9955 35.5005H30.858V29.0003C30.858 27.4512 30.8268 25.4646 28.7022 25.4646C26.5464 25.4646 26.2161 27.1476 26.2161 28.8887V35.5005H22.0741V22.1475H26.0509V23.969H26.1089C26.6625 22.9199 28.0147 21.8127 30.0321 21.8127C34.2286 21.8127 35 24.5761 35 28.1655V35.5005H34.9955Z" fill="white"/>
<circle cx="65" cy="25.5" r="25" fill="#F54C37"/>
<path d="M61.6895 31.0234C61.6895 31.1016 61.5968 31.1641 61.4798 31.1641C61.3468 31.1758 61.254 31.1133 61.254 31.0234C61.254 30.9453 61.3468 30.8828 61.4637 30.8828C61.5847 30.8711 61.6895 30.9336 61.6895 31.0234ZM60.4355 30.8477C60.4073 30.9258 60.4879 31.0156 60.6089 31.0391C60.7137 31.0781 60.8347 31.0391 60.8589 30.9609C60.8831 30.8828 60.8065 30.793 60.6855 30.7578C60.5806 30.7305 60.4637 30.7695 60.4355 30.8477ZM62.2177 30.7812C62.1008 30.8086 62.0202 30.8828 62.0323 30.9727C62.0444 31.0508 62.1492 31.1016 62.2702 31.0742C62.3871 31.0469 62.4677 30.9727 62.4556 30.8945C62.4435 30.8203 62.3347 30.7695 62.2177 30.7812ZM64.871 15.8125C59.2782 15.8125 55 19.9258 55 25.3438C55 29.6758 57.8145 33.3828 61.8347 34.6875C62.3508 34.7773 62.5323 34.4688 62.5323 34.2148C62.5323 33.9727 62.5202 32.6367 62.5202 31.8164C62.5202 31.8164 59.6976 32.4023 59.1048 30.6523C59.1048 30.6523 58.6452 29.5156 57.9839 29.2227C57.9839 29.2227 57.0605 28.6094 58.0484 28.6211C58.0484 28.6211 59.0524 28.6992 59.6048 29.6289C60.4879 31.1367 61.9677 30.7031 62.5444 30.4453C62.6371 29.8203 62.8992 29.3867 63.1895 29.1289C60.9355 28.8867 58.6613 28.5703 58.6613 24.8125C58.6613 23.7383 58.9677 23.1992 59.6129 22.5117C59.5081 22.2578 59.1653 21.2109 59.7177 19.8594C60.5605 19.6055 62.5 20.9141 62.5 20.9141C63.3065 20.6953 64.1734 20.582 65.0323 20.582C65.8911 20.582 66.7581 20.6953 67.5645 20.9141C67.5645 20.9141 69.504 19.6016 70.3468 19.8594C70.8992 21.2148 70.5565 22.2578 70.4516 22.5117C71.0968 23.2031 71.4919 23.7422 71.4919 24.8125C71.4919 28.582 69.1169 28.8828 66.8629 29.1289C67.2339 29.4375 67.5484 30.0234 67.5484 30.9414C67.5484 32.2578 67.5363 33.8867 67.5363 34.207C67.5363 34.4609 67.7218 34.7695 68.2339 34.6797C72.2661 33.3828 75 29.6758 75 25.3438C75 19.9258 70.4637 15.8125 64.871 15.8125ZM58.9194 29.2852C58.8669 29.3242 58.879 29.4141 58.9476 29.4883C59.0121 29.5508 59.1048 29.5781 59.1573 29.5273C59.2097 29.4883 59.1976 29.3984 59.129 29.3242C59.0645 29.2617 58.9718 29.2344 58.9194 29.2852ZM58.4839 28.9688C58.4556 29.0195 58.496 29.082 58.5766 29.1211C58.6411 29.1602 58.7218 29.1484 58.75 29.0938C58.7782 29.043 58.7379 28.9805 58.6573 28.9414C58.5766 28.918 58.5121 28.9297 58.4839 28.9688ZM59.7903 30.3594C59.7258 30.4102 59.75 30.5273 59.8427 30.6016C59.9355 30.6914 60.0524 30.7031 60.1048 30.6406C60.1573 30.5898 60.1331 30.4727 60.0524 30.3984C59.9637 30.3086 59.8427 30.2969 59.7903 30.3594ZM59.3306 29.7852C59.2661 29.8242 59.2661 29.9258 59.3306 30.0156C59.3952 30.1055 59.504 30.1445 59.5565 30.1055C59.621 30.0547 59.621 29.9531 59.5565 29.8633C59.5 29.7734 59.3952 29.7344 59.3306 29.7852Z" fill="white"/>
<circle cx="105" cy="25.5" r="25" fill="#F54C37"/>
<path d="M95.7291 19.2419C95.7291 17.1753 97.9629 15.5 100.718 15.5H109.279C112.035 15.5 114.268 17.1753 114.268 19.2419C114.268 20.5505 113.373 21.7022 112.016 22.371C113.373 23.0398 114.268 24.1915 114.268 25.5001C114.268 27.5667 112.035 29.242 109.279 29.242H109.171C107.879 29.242 106.702 28.8738 105.816 28.2697V31.7175C105.816 33.8116 103.524 35.5 100.745 35.5C97.9966 35.5 95.7291 33.8298 95.7291 31.7581C95.7291 30.4496 96.6247 29.2979 97.9812 28.6291C96.6247 27.9603 95.7291 26.8086 95.7291 25.5001C95.7291 24.1915 96.6248 23.0398 97.9813 22.371C96.6248 21.7022 95.7291 20.5505 95.7291 19.2419ZM104.182 22.9839H100.718C98.8654 22.9839 97.3634 24.1104 97.3634 25.5001C97.3634 26.8844 98.8539 28.0076 100.697 28.0162C100.704 28.0162 100.711 28.0162 100.718 28.0162H104.182V22.9839ZM105.816 25.5001C105.816 26.8897 107.318 28.0163 109.171 28.0163H109.279C111.132 28.0163 112.634 26.8897 112.634 25.5001C112.634 24.1104 111.132 22.9839 109.279 22.9839H109.171C107.318 22.9839 105.816 24.1104 105.816 25.5001ZM100.718 29.242C100.711 29.242 100.704 29.242 100.697 29.242C98.8539 29.2506 97.3634 30.3738 97.3634 31.7581C97.3634 33.1427 98.8855 34.2743 100.745 34.2743C102.635 34.2743 104.182 33.1245 104.182 31.7175V29.242H100.718ZM100.718 16.7257C98.8654 16.7257 97.3634 17.8522 97.3634 19.2419C97.3634 20.6316 98.8654 21.7581 100.718 21.7581H104.182V16.7257H100.718ZM105.816 21.7581H109.279C111.132 21.7581 112.634 20.6316 112.634 19.2419C112.634 17.8522 111.132 16.7257 109.279 16.7257H105.816V21.7581Z" fill="white"/>
</svg>
