<svg width="75" height="36" viewBox="0 0 75 36" fill="none" xmlns="http://www.w3.org/2000/svg">
<g clip-path="url(#clip0_608_1044)">
<path d="M-5307.04 -268.3H5903.04V6738H-5307.04V-268.3Z" stroke="white" stroke-width="12.5112" stroke-linecap="round" stroke-linejoin="round"/>
<path fill-rule="evenodd" clip-rule="evenodd" d="M10.3039 12.878L13.5818 9.6001L14.7274 10.7457L10.2911 15.1819L7.5 12.3912L8.65877 11.2325L10.3039 12.878ZM28.5 13.2318H16.2131V11.4897H28.5V13.2318Z" fill="white" stroke="white" stroke-width="0.627038" stroke-linecap="round" stroke-linejoin="round"/>
<path fill-rule="evenodd" clip-rule="evenodd" d="M10.3039 12.878L13.5818 9.6001L14.7274 10.7457L10.2911 15.1819L7.5 12.3912L8.65877 11.2325L10.3039 12.878ZM28.5 13.2318H16.2131V11.4897H28.5V13.2318Z" fill="white" stroke="white" stroke-width="0.627038" stroke-linecap="round" stroke-linejoin="round"/>
<path fill-rule="evenodd" clip-rule="evenodd" d="M10.3039 26.9234L13.5818 23.6455L14.7274 24.7911L10.2911 29.2273L7.5 26.4366L8.65877 25.2779L10.3039 26.9234ZM28.5 27.2772H16.2131V25.5351H28.5V27.2772Z" fill="white" stroke="white" stroke-width="0.627038" stroke-linecap="round" stroke-linejoin="round"/>
<path fill-rule="evenodd" clip-rule="evenodd" d="M10.3039 26.9234L13.5818 23.6455L14.7274 24.7911L10.2911 29.2273L7.5 26.4366L8.65877 25.2779L10.3039 26.9234ZM28.5 27.2772H16.2131V25.5351H28.5V27.2772Z" fill="white" stroke="white" stroke-width="0.627038" stroke-linecap="round" stroke-linejoin="round"/>
<path fill-rule="evenodd" clip-rule="evenodd" d="M10.3039 19.901L13.5818 16.623L14.7274 17.7686L10.2911 22.2049L7.5 19.4142L8.65877 18.2554L10.3039 19.901ZM28.5 20.2547H16.2131V18.5126H28.5V20.2547Z" fill="white" stroke="white" stroke-width="0.627038" stroke-linecap="round" stroke-linejoin="round"/>
<path fill-rule="evenodd" clip-rule="evenodd" d="M10.3039 19.901L13.5818 16.623L14.7274 17.7686L10.2911 22.2049L7.5 19.4142L8.65877 18.2554L10.3039 19.901ZM28.5 20.2547H16.2131V18.5126H28.5V20.2547Z" fill="white" stroke="white" stroke-width="0.627038" stroke-linecap="round" stroke-linejoin="round"/>
</g>
<path d="M44.756 21.776C45.236 21.776 45.6253 21.6587 45.924 21.424C46.2333 21.1893 46.388 20.8533 46.388 20.416C46.388 19.488 45.6253 19.024 44.1 19.024H43.524V16.944H44.116C44.596 16.944 44.9747 16.8107 45.252 16.544C45.5293 16.2667 45.668 15.952 45.668 15.6C45.668 15.2693 45.5453 15.008 45.3 14.816C45.0547 14.6133 44.7347 14.512 44.34 14.512C43.6787 14.512 43.1133 14.8 42.644 15.376L41.316 13.664C42.4787 12.7787 43.6467 12.336 44.82 12.336C45.492 12.336 46.084 12.464 46.596 12.72C47.108 12.9653 47.5027 13.3173 47.78 13.776C48.0573 14.224 48.196 14.736 48.196 15.312C48.196 15.7493 48.116 16.176 47.956 16.592C47.796 17.008 47.5613 17.3867 47.252 17.728C47.7853 18.048 48.196 18.4587 48.484 18.96C48.7827 19.4507 48.932 20 48.932 20.608C48.932 21.28 48.74 21.888 48.356 22.432C47.9827 22.9653 47.476 23.3867 46.836 23.696C46.196 24.0053 45.5027 24.16 44.756 24.16C43.956 24.16 43.1987 23.9947 42.484 23.664C41.78 23.3227 41.1773 22.896 40.676 22.384L41.636 20.48C41.988 20.7893 42.452 21.0827 43.028 21.36C43.6147 21.6373 44.1907 21.776 44.756 21.776ZM54.957 12.16L57.789 12.32L50.589 25.6L47.757 25.44L54.957 12.16ZM56.5775 15.84L60.5135 12.48H62.3215V24H59.7935V16.144L57.8575 17.776L56.5775 15.84ZM68.4278 24.16C67.4784 24.16 66.6358 23.92 65.8997 23.44C65.1744 22.9493 64.6091 22.256 64.2038 21.36C63.8091 20.464 63.6117 19.424 63.6117 18.24C63.6117 17.056 63.8091 16.016 64.2038 15.12C64.6091 14.224 65.1744 13.536 65.8997 13.056C66.6358 12.5653 67.4784 12.32 68.4278 12.32C69.3771 12.32 70.2144 12.5653 70.9398 13.056C71.6651 13.536 72.2304 14.224 72.6358 15.12C73.0411 16.016 73.2438 17.056 73.2438 18.24C73.2438 19.424 73.0411 20.464 72.6358 21.36C72.2304 22.256 71.6651 22.9493 70.9398 23.44C70.2144 23.92 69.3771 24.16 68.4278 24.16ZM66.1878 18.256C66.1878 20.6453 66.9344 21.84 68.4278 21.84C69.9211 21.84 70.6678 20.6453 70.6678 18.256C70.6678 17.0613 70.4811 16.16 70.1078 15.552C69.7344 14.944 69.1744 14.64 68.4278 14.64C66.9344 14.64 66.1878 15.8453 66.1878 18.256Z" fill="white"/>
<defs>
<clipPath id="clip0_608_1044">
<rect width="35" height="35" fill="white" transform="translate(0.5 0.5)"/>
</clipPath>
</defs>
</svg>
